# xmcd CD database file
#
# Track frame offsets:
#	150
#	22187
#	42003
#	54244
#	75445
#	98944
#	119495
#	136762
#	160603
#	183047
#	202843
#	215559
#	237535
#	260959
#	281381
#	298663
#
# Disc length: 4294 seconds
#
# Revision: 0
# Processed by: cddbd v1.5.1PL2 Copyright (c) Steve Scherf et al.
# Submitted via: CDex 1.51
#
DISCID=df10c410
DTITLE=Eric Clapton - Play Guitar With Clapton
DYEAR=1996
DGENRE=Blues
TTITLE0=Bad Love
TTITLE1=I Shot The Sheriff
TTITLE2=Layla
TTITLE3=Let It Grow
TTITLE4=Sunshine Of Your Love
TTITLE5=Tears In Heaven
TTITLE6=Wonderful Tonight
TTITLE7=White Room
TTITLE8=Bad Love, NA
TTITLE9=I Shot the Sheriff, NA
TTITLE10=Layla, NA
TTITLE11=Let It Grow, NA
TTITLE12=Sunshine Of Your Love, NA
TTITLE13=Tears In Heaven, NA
TTITLE14=Wonderful Tonight, NA
TTITLE15=White Room, NA
EXTD=YEAR: 1996
EXTT0=
EXTT1=
EXTT2=
EXTT3=
EXTT4=
EXTT5=
EXTT6=
EXTT7=
EXTT8=
EXTT9=
EXTT10=
EXTT11=
EXTT12=
EXTT13=
EXTT14=
EXTT15=
PLAYORDER=
